<svg width="1024px" height="1024px" viewBox="0 0 1024 1024" version="1.1" xmlns="http://www.w3.org/2000/svg" xmlns:xlink="http://www.w3.org/1999/xlink">
    <defs>
        <linearGradient x1="50%" y1="0%" x2="50%" y2="100%" id="linearGradient-1">
            <stop stop-color="#52FFBB" offset="8.65709459%"></stop>
            <stop stop-color="#4CBDFB" offset="47.9967272%"></stop>
            <stop stop-color="#8839E8" offset="100%"></stop>
        </linearGradient>
        <path d="M268.19037,529.292976 L391.36068,529.292976 L218.624214,609.24632 L168.113089,690.723958 C153.644385,714.062892 130.214938,730.425114 103.321089,735.972193 L0,757.283022 L373.111456,11.0601092 C378.051241,1.18053927 390.064702,-2.82394766 399.944272,2.11583731 C403.81482,4.05111133 406.95327,7.18956117 408.888544,11.0601092 L782,757.283022 L678.678911,735.972193 C651.785062,730.425114 628.355615,714.062892 613.886911,690.723958 L407.998522,358.612969 C402.178524,349.224944 389.849986,346.332487 380.461962,352.152485 C377.838839,353.77866 375.627653,355.989846 374.001478,358.612969 L268.19037,529.292976 Z" id="path-2"></path>
        <filter x="-2.2%" y="-2.3%" width="104.5%" height="104.6%" filterUnits="objectBoundingBox" id="filter-3">
            <feGaussianBlur stdDeviation="10" in="SourceAlpha" result="shadowBlurInner1"></feGaussianBlur>
            <feOffset dx="0" dy="15" in="shadowBlurInner1" result="shadowOffsetInner1"></feOffset>
            <feComposite in="shadowOffsetInner1" in2="SourceAlpha" operator="arithmetic" k2="-1" k3="1" result="shadowInnerInner1"></feComposite>
            <feColorMatrix values="0 0 0 0 0   0 0 0 0 0   0 0 0 0 0  0 0 0 0.4 0" type="matrix" in="shadowInnerInner1"></feColorMatrix>
        </filter>
    </defs>
    <g id="Logo-Light" stroke="none" stroke-width="1" fill="none" fill-rule="evenodd">
        <rect fill="#FFFFFF" x="0" y="0" width="1024" height="1024"></rect>
        <g id="Logo" transform="translate(121.000000, 133.000000)">
            <g id="Combined-Shape">
                <use fill="url(#linearGradient-1)" fill-rule="evenodd" xlink:href="#path-2"></use>
                <use fill="black" fill-opacity="1" filter="url(#filter-3)" xlink:href="#path-2"></use>
            </g>
        </g>
    </g>
</svg>